Coordinates
version=1
nRows=8
nColumns=40
inDegrees=yes

Units are S.I. units (second, meters, Newtons, ...)
If the header above contains a line with 'inDegrees', this indicates whether rotational values are in degrees (yes) or radians (no).

endheader
time	pelvis_tilt	pelvis_list	pelvis_rotation	pelvis_tx	pelvis_ty	pelvis_tz	hip_flexion_r	hip_adduction_r	hip_rotation_r	knee_angle_r	knee_angle_r_beta	ankle_angle_r	subtalar_angle_r	mtp_angle_r	hip_flexion_l	hip_adduction_l	hip_rotation_l	knee_angle_l	knee_angle_l_beta	ankle_angle_l	subtalar_angle_l	mtp_angle_l	lumbar_extension	lumbar_bending	lumbar_rotation	arm_flex_r	arm_add_r	arm_rot_r	elbow_flex_r	pro_sup_r	wrist_flex_r	wrist_dev_r	arm_flex_l	arm_add_l	arm_rot_l	elbow_flex_l	pro_sup_l	wrist_flex_l	wrist_dev_l
      1.75000000	      4.76315769	     -5.65747385	      0.71679305	     -0.25010894	      0.99666969	     -0.99142836	     42.83998944	     -0.13683131	      0.81218522	     17.80597538	      0.31077290	    -16.81371483	      0.00000000	      0.00000000	     -0.21555726	     -2.42467943	     -3.37860588	     10.71685482	      0.18704440	     -5.57608522	      0.00000000	      0.00000000	     -5.24915966	      2.58265388	      4.07882688	     89.67046313	    -12.14332218	     34.14776473	     20.67321793	     85.39646305	      0.00000000	      0.00000000	     89.82041264	    -28.27820057	     36.23533568	     31.27856431	     85.84099625	      0.00000000	      0.00000000
      1.75500000	      4.74510490	     -5.65502708	      0.69388621	     -0.25029882	      0.99662696	     -0.99129006	     42.88315516	     -0.11286977	      0.86418478	     17.82246014	      0.31106061	    -16.82353529	      0.00000000	      0.00000000	     -0.04125400	     -2.44688071	     -3.37030124	     10.99780664	      0.19194794	     -5.56381520	      0.00000000	      0.00000000	     -5.26699181	      2.57507788	      4.13656550	     89.67263677	    -12.17980888	     34.17219123	     20.76685421	     85.27627537	      0.00000000	      0.00000000	     89.82192386	    -28.23233947	     36.10027754	     31.28181524	     85.88627553	      0.00000000	      0.00000000
      1.76000000	      4.71598017	     -5.64941493	      0.74618276	     -0.25059070	      0.99651770	     -0.99125090	     42.95651991	     -0.16113034	      0.76864822	     17.89941188	      0.31240367	    -16.81041895	      0.00000000	      0.00000000	      0.18929163	     -2.46810663	     -3.28589632	     11.33314788	      0.19780075	     -5.46596232	      0.00000000	      0.00000000	     -5.28944718	      2.56236872	      4.10453576	     89.67733106	    -12.17437289	     34.10659474	     20.77018577	     85.30492378	      0.00000000	      0.00000000	     89.82468651	    -28.22188238	     36.01396207	     31.33726238	     85.85599698	      0.00000000	      0.00000000
      1.76500000	      4.69250373	     -5.65525006	      0.73470679	     -0.25082794	      0.99648379	     -0.99118987	     42.95298709	     -0.13332590	      0.85570782	     17.81921116	      0.31100390	    -16.84886988	      0.00000000	      0.00000000	      0.35889854	     -2.49852613	     -3.30734969	     11.58068342	      0.20212106	     -5.44153464	      0.00000000	      0.00000000	     -5.32595652	      2.54983145	      4.13625163	     89.68196849	    -12.24306659	     34.10974651	     20.85157146	     85.30589966	      0.00000000	      0.00000000	     89.82715364	    -28.20250234	     35.94175591	     31.41559167	     85.85705701	      0.00000000	      0.00000000
      1.77000000	      4.64276832	     -5.67428531	      0.83407454	     -0.25137098	      0.99633682	     -0.99117382	     43.03802403	     -0.18624578	      0.73681910	     17.83334562	      0.31125060	    -16.94737956	      0.00000000	      0.00000000	      0.72247609	     -2.56417113	     -3.18485127	     12.08469907	      0.21091779	     -5.35974323	      0.00000000	      0.00000000	     -5.35009489	      2.55468155	      4.07770386	     89.69415916	    -12.29714393	     34.06522290	     20.94364206	     85.08468911	      0.00000000	      0.00000000	     89.82973953	    -28.10326011	     35.65749821	     31.41910318	     85.83233931	      0.00000000	      0.00000000
      1.77500000	      4.58968806	     -5.73147221	      0.79543446	     -0.25145323	      0.99612221	     -0.99095034	     43.11512768	     -0.09290891	      0.77728377	     17.85839402	      0.31168777	    -16.86205037	      0.00000000	      0.00000000	      0.92161775	     -2.65990851	     -3.29616880	     12.36375768	      0.21578828	     -5.21364597	      0.00000000	      0.00000000	     -5.32238392	      2.60375219	      4.12285683	     89.69520922	    -12.25283929	     33.78702245	     20.90421753	     85.26799260	      0.00000000	      0.00000000	     89.83118722	    -28.15024374	     35.75731401	     31.50478037	     85.78880498	      0.00000000	      0.00000000
      1.78000000	      4.54516389	     -5.79045636	      0.82514164	     -0.25179171	      0.99590350	     -0.99082695	     43.17278331	     -0.06191026	      0.71629040	     17.85297297	      0.31159316	    -16.82316436	      0.00000000	      0.00000000	      1.19969933	     -2.76510520	     -3.27732435	     12.76688876	      0.22282424	     -5.05262736	      0.00000000	      0.00000000	     -5.33057655	      2.64761215	      4.11819650	     89.69901515	    -12.25209085	     33.71608531	     20.89194343	     85.15419618	      0.00000000	      0.00000000	     89.83377448	    -28.11896704	     35.59041515	     31.60736438	     85.78524594	      0.00000000	      0.00000000
      1.78500000	      4.52947200	     -5.77794558	      0.84966102	     -0.25203030	      0.99581193	     -0.99082143	     43.20688371	     -0.08785701	      0.69837321	     17.86831810	      0.31186098	    -16.84484893	      0.00000000	      0.00000000	      1.43979143	     -2.77842118	     -3.38982512	     13.16056055	      0.22969511	     -4.99648369	      0.00000000	      0.00000000	     -5.37661986	      2.63551569	      4.14945537	     89.70815009	    -12.37384027	     33.83122401	     21.10995821	     85.18539339	      0.00000000	      0.00000000	     89.83472672	    -28.05802617	     35.48120824	     31.59533017	     85.79845253	      0.00000000	      0.00000000
